<svg width="400" height="400" viewBox="0 0 400 400" fill="none" xmlns="http://www.w3.org/2000/svg">
  <rect width="400" height="400" fill="#F5F5F5"/>
  <!-- First tag -->
  <rect x="80" y="120" width="100" height="160" rx="10" fill="#8B4513"/>
  <rect x="90" y="130" width="80" height="140" rx="5" fill="#A0522D"/>
  <circle cx="130" cy="150" r="10" fill="#2C2C2C"/>
  <rect x="100" y="180" width="60" height="70" rx="5" fill="#F5F5F5" opacity="0.9"/>
  <line x1="110" y1="200" x2="150" y2="200" stroke="#CCCCCC" stroke-width="2"/>
  <line x1="110" y1="210" x2="150" y2="210" stroke="#CCCCCC" stroke-width="2"/>
  <line x1="110" y1="220" x2="150" y2="220" stroke="#CCCCCC" stroke-width="2"/>
  <!-- Second tag -->
  <rect x="220" y="140" width="100" height="160" rx="10" fill="#2C2C2C"/>
  <rect x="230" y="150" width="80" height="140" rx="5" fill="#1A1A1A"/>
  <circle cx="270" cy="170" r="10" fill="#8B4513"/>
  <rect x="240" y="200" width="60" height="70" rx="5" fill="#F5F5F5" opacity="0.9"/>
  <line x1="250" y1="220" x2="290" y2="220" stroke="#CCCCCC" stroke-width="2"/>
  <line x1="250" y1="230" x2="290" y2="230" stroke="#CCCCCC" stroke-width="2"/>
  <line x1="250" y1="240" x2="290" y2="240" stroke="#CCCCCC" stroke-width="2"/>
  <!-- Straps -->
  <path d="M130 140 Q130 100 170 100" stroke="#654321" stroke-width="4" fill="none"/>
  <path d="M270 160 Q270 120 310 120" stroke="#4A4A4A" stroke-width="4" fill="none"/>
</svg>